<?xml version="1.0" encoding="iso-8859-1"?>
<!-- Generator: Adobe Illustrator 16.0.0, SVG Export Plug-In . SVG Version: 6.00 Build 0)  -->
<!DOCTYPE svg PUBLIC "-//W3C//DTD SVG 1.1//EN" "http://www.w3.org/Graphics/SVG/1.1/DTD/svg11.dtd">
<svg version="1.1" id="Capa_1" xmlns="http://www.w3.org/2000/svg" xmlns:xlink="http://www.w3.org/1999/xlink" x="0px" y="0px"
	 width="141.73px" height="141.73px" viewBox="0 0 141.73 141.73" style="enable-background:new 0 0 141.73 141.73;"
	 xml:space="preserve">
<path style="fill:#646569;" d="M70.866,0C31.727,0,0,31.72,0,70.847c0,39.128,31.728,70.846,70.866,70.846
	c39.137,0,70.867-31.718,70.867-70.846C141.732,31.72,110.003,0,70.866,0"/>
<path style="fill:#494951;" d="M41.382,61.059c0,0,0.914,8.812,6.152,13.8l-4.323-1.662c0,0,0.572,6.303,3.897,9.877l-3.437-1.756
	c0,0,0.041,6.446,3.283,9.771l-3.054-1.984c0,0,0.557,7.038,2.469,8.784l9.395,10.39l31.475,31.266c0,0,16.72-2.17,33.815-19.128
	c0,0,13.272-12.386,17.325-28.597L94.423,48.421C94.423,48.421,54.684,26.309,41.382,61.059z"/>
<g>
	<path style="fill:#FFFFFF;" d="M70.139,86.808c16.271,0,29.02-8.938,29.02-20.348c0-0.044-0.006-0.087-0.006-0.133
		c-4.37,8.621-15.701,14.616-29.329,14.616c-12.991,0-23.888-5.449-28.666-13.425C41.916,78.417,54.372,86.808,70.139,86.808"/>
	<path style="fill:#FFFFFF;" d="M69.61,61.318c5.04-0.856,6.479-0.667,7.024,0.483c0.603,1.274-0.805,3.052-2.397,3.774L72.542,62
		l-2.386,0.471l1.95,4.116c-0.507,0.449-3.787,1.313-4.007,0.848c-0.127-0.27,1.704-1.437,1.019-2.881
		c-0.569-1.201-2.404-1.563-4.242-0.693c-2.021,0.958-3.016,2.659-2.378,4.006c1.313,2.768,6.951,1.659,10.283,0.142l0.953,2.01
		l2.132-1.011l-0.953-2.009c4.659-2.417,7.768-6.497,6.128-9.954c-1.382-2.913-4.197-3.35-8.527-2.71l-3.454,0.496
		c-1.922,0.312-4.609,0.531-5.527-0.743c-0.647-0.894,0.084-2.198,1.239-2.986l1.403,2.966l2.423-0.397L66.9,50.091
		c0.418-0.258,2.581-1.013,2.813-0.521c0.162,0.343-0.707,1.264-0.195,2.342c0.511,1.077,2.292,1.226,3.908,0.458
		c1.801-0.853,3.019-2.27,2.404-3.566c-1.267-2.672-6.407-1.559-9.604-0.134l-0.823-1.739l-2.132,1.008l0.848,1.79
		c-3.943,2.315-6.292,6.188-4.938,9.236C60.408,61.745,63.578,62.164,69.61,61.318"/>
	<path style="fill:#FFFFFF;" d="M100.098,90.655c-4.373,8.62-15.699,14.617-29.329,14.617c-12.975,0-23.881-5.396-28.665-13.393
		c0.784,10.881,13.229,19.254,28.979,19.254c16.273,0,29.019-8.938,29.019-20.346C100.102,90.743,100.098,90.699,100.098,90.655"/>
	<path style="fill:#FFFFFF;" d="M70.769,103.023c16.271,0,29.019-8.937,29.019-20.344c0-0.046-0.004-0.091-0.006-0.136
		c-4.372,8.622-15.7,14.618-29.328,14.618c-12.972,0-23.879-5.396-28.663-13.393C42.572,94.652,55.019,103.023,70.769,103.023"/>
	<path style="fill:#FFFFFF;" d="M70.454,94.916c16.271,0,29.019-8.938,29.019-20.346c0-0.045-0.005-0.089-0.005-0.133
		c-4.371,8.619-15.7,14.617-29.329,14.617c-12.977,0-23.88-5.392-28.661-13.387C42.264,86.548,54.708,94.916,70.454,94.916"/>
	<path style="fill:#FFFFFF;" d="M69.824,78.697c16.271,0,29.019-8.938,29.019-20.346S86.096,38.006,69.824,38.006
		s-29.019,8.938-29.019,20.346C40.806,69.76,53.552,78.697,69.824,78.697 M69.824,43.999c12.479,0,23.024,6.573,23.024,14.354
		c0,7.778-10.545,14.352-23.024,14.352c-12.479,0-23.025-6.572-23.025-14.352C46.799,50.572,57.345,43.999,69.824,43.999"/>
</g>
</svg>
